PathFileType	4	(X/Y/Z)	Walk8.trc
DataRate	CameraRate	NumFrames	NumMarkers	Units	OrigDataRate	OrigDataStartFrame	OrigNumFrames
200.000000	200.000000	10	54	mm	200.000000	408	521
Frame#	Times		RBHD		C7		RASI		RACR1		RUA1		RElbow		RFA1		RWRU		RCAR		LACR1		LElbowM		LFA1		LWRR		RTH1		RTH3		RTH2		RLFC		RTB1		RTB3		RTB2		RTB4		RMT1		RMT5		LTH2		RTH4		LWRU		LTH3		LTH4		LElbow		LPSI		RPSI		LTB1		LLFC		T10		RWRR		LTB4		LTB3		LBHD		LTH1		LMT1		RBack		LCAL		CLAV		LTB2		LLMAL		LToe		RLMAL		LMT5		RMMAL		RElbowM		RToe		LUA1		LCAR		RCAL
			X1	Y1	Z1	X2	Y2	Z2	X3	Y3	Z3	X4	Y4	Z4	X5	Y5	Z5	X6	Y6	Z6	X7	Y7	Z7	X8	Y8	Z8	X9	Y9	Z9	X10	Y10	Z10	X11	Y11	Z11	X12	Y12	Z12	X13	Y13	Z13	X14	Y14	Z14	X15	Y15	Z15	X16	Y16	Z16	X17	Y17	Z17	X18	Y18	Z18	X19	Y19	Z19	X20	Y20	Z20	X21	Y21	Z21	X22	Y22	Z22	X23	Y23	Z23	X24	Y24	Z24	X25	Y25	Z25	X26	Y26	Z26	X27	Y27	Z27	X28	Y28	Z28	X29	Y29	Z29	X30	Y30	Z30	X31	Y31	Z31	X32	Y32	Z32	X33	Y33	Z33	X34	Y34	Z34	X35	Y35	Z35	X36	Y36	Z36	X37	Y37	Z37	X38	Y38	Z38	X39	Y39	Z39	X40	Y40	Z40	X41	Y41	Z41	X42	Y42	Z42	X43	Y43	Z43	X44	Y44	Z44	X45	Y45	Z45	X46	Y46	Z46	X47	Y47	Z47	X48	Y48	Z48	X49	Y49	Z49	X50	Y50	Z50	X51	Y51	Z51	X52	Y52	Z52	X53	Y53	Z53	X54	Y54	Z54

408	2.04	709.75	1570.7	333.1	662.75	1432.1	256.81	744.06	929.52	397.14	715.63	1384.6	410.05	624.58	1208.4	487.34	548.65	1097.1	505.05	546.89	951.03	535.22	500.47	826.77	529.23	526.24	763.23	540.53	707.8	1420.8	85.885	611.59	1096.3	36.227	767.56	999.88	-55.966	851.18	926.77	-6.238	728.03	729.54	455.12	808.65	558.87	433.08	827.52	675.04	415.76	849.33	470.34	414.93	917.76	398.82	339.8	972.21	215.54	346.81	926.96	304.12	415.45	946.19	310.01	345.49	1110.1	96.327	313.39	1084.4	81.087	392.69	719.44	630.93	116.07	768.6	643.92	448.96	792.38	883.28	-42.556	634.88	554.59	90.267	655.3	640.46	73.141	639.16	1102.2	-41.737	566.38	951.04	193.82	562.72	949.86	298.65	598.96	345.47	175.45	591.09	441.43	110.53	557.36	1124	243.08	570.99	805.62	501.6	556.56	263.12	187.06	518.07	179.52	197.8	695.21	1567	194.19	677.75	734.99	63.009	570.12	35.544	254.31	581.48	1345.9	343.07	358.71	48.99	224.56	794.91	1345.8	250.08	532.06	266.52	119.34	415.36	82.348	176.99	619.83	23.603	241.96	949.38	96.336	385.01	541.02	29.672	163.3	975.55	120.68	301.54	531.9	1077.8	411.47	1146.8	121.97	342.57	670.21	1230.9	-17.303	875.97	878.03	-52.023	923.98	33.863	340.46
409	2.045	716.36	1569.3	333.88	669.3	1430.8	257.04	751.37	928.51	397.36	721.84	1383.3	410.39	630.29	1207.3	487.32	553.99	1096.1	504.67	551.48	950.12	534.91	504.44	826.07	528.83	529.79	762.32	540.01	714.84	1419.8	86.228	619.11	1095.2	36.101	775.82	999.5	-55.689	859.71	926.91	-5.7257	735.17	728.26	455.3	815.84	557.67	432.64	834.56	673.84	415.44	856.82	469.33	414.34	925.99	398.5	339.2	982.42	215.68	346	936.2	303.74	414.76	955.39	309.92	344.8	1121.7	97.91	312.14	1096.3	82.004	391.38	724.85	629.69	116.14	775.78	642.67	448.86	801.25	883.08	-42.192	639.71	553.95	90.466	660.7	639.69	73.372	646.85	1101.2	-41.894	573.39	949.64	194.37	569.88	948.53	299.19	602.13	344.77	175.61	595.13	441.02	110.74	564.27	1122.6	243.22	574.91	804.52	501.29	558.9	262.84	187.12	519.55	179.63	197.75	701.74	1565.9	194.95	683.79	734.06	63.203	570.16	35.538	254.26	587.92	1344.5	342.97	358.89	50.546	224.28	801.64	1344.6	250.55	534.44	266.57	119.41	415.87	83.453	176.77	619.85	23.593	242.05	960.91	96.114	383.98	541.07	29.619	163.27	986.8	120.89	300.59	537.48	1076.9	411.03	1158.4	123.69	341.25	677.72	1229.9	-17.191	884.89	878.32	-51.448	936.1	33.415	339.37
410	2.05	722.96	1567.9	334.66	675.86	1429.5	257.29	758.71	927.49	397.58	728.05	1382	410.74	636.04	1206.1	487.32	559.41	1095.1	504.33	556.22	949.18	534.63	508.61	825.33	528.44	533.55	761.37	539.49	721.88	1418.8	86.584	626.62	1094.1	35.998	784.02	999.06	-55.405	868.15	926.96	-5.2149	742.48	727.04	455.48	823.23	556.57	432.21	841.78	672.75	415.14	864.47	468.35	413.78	934.19	398.09	338.6	992.2	215.66	345.11	945.22	303.26	414.01	964.36	309.72	344.07	1132.5	99.184	310.77	1107.4	82.636	389.96	730.33	628.45	116.19	783.16	641.51	448.79	810	882.81	-41.829	644.61	553.32	90.659	666.16	638.93	73.605	654.53	1100.2	-42.015	580.47	948.25	194.92	577.09	947.2	299.72	605.38	344.07	175.75	599.26	440.62	110.94	571.23	1121.2	243.34	579.02	803.4	500.98	561.31	262.58	187.16	521.07	179.78	197.68	708.27	1564.7	195.72	689.89	733.15	63.404	570.19	35.529	254.21	594.37	1343.1	342.89	359.08	52.214	223.99	808.38	1343.4	251.04	536.89	266.66	119.47	416.42	84.638	176.51	619.86	23.59	242.14	971.76	95.799	382.84	541.12	29.562	163.24	997.39	120.98	299.52	543.13	1076	410.63	1169.2	125.05	339.83	685.23	1228.9	-17.06	893.67	878.51	-50.878	947.42	32.943	338.15
411	2.055	729.55	1566.5	335.45	682.42	1428.3	257.55	766.1	926.48	397.8	734.25	1380.7	411.12	641.84	1204.9	487.34	564.92	1094.1	504.02	561.1	948.21	534.37	512.96	824.54	528.08	537.54	760.39	538.98	728.92	1417.7	86.954	634.1	1093	35.915	792.16	998.55	-55.112	876.49	926.91	-4.7063	749.96	725.9	455.68	830.82	555.57	431.77	849.19	671.77	414.86	872.26	467.4	413.24	942.37	397.6	337.99	1001.5	215.48	344.14	954.02	302.67	413.21	973.11	309.38	343.28	1142.6	100.11	309.31	1117.8	82.958	388.42	735.89	627.22	116.22	790.73	640.44	448.72	818.63	882.48	-41.471	649.61	552.69	90.847	671.68	638.18	73.843	662.2	1099.2	-42.102	587.6	946.88	195.45	584.36	945.9	300.24	608.72	343.37	175.89	603.5	440.22	111.13	578.24	1119.8	243.46	583.34	802.27	500.69	563.79	262.35	187.19	522.65	179.97	197.59	714.79	1563.6	196.49	696.04	732.24	63.616	570.21	35.517	254.16	600.83	1341.6	342.83	359.31	54	223.67	815.14	1342.2	251.54	539.42	266.77	119.51	417.01	85.905	176.24	619.85	23.59	242.22	981.91	95.375	381.59	541.16	29.5	163.21	1007.3	120.91	298.36	548.86	1075.1	410.28	1179.3	126.01	338.31	692.73	1227.9	-16.91	902.34	878.6	-50.312	957.94	32.438	336.84
412	2.06	736.14	1565.2	336.25	688.99	1427	257.83	773.52	925.48	398.04	740.46	1379.5	411.51	647.7	1203.7	487.39	570.51	1093	503.76	566.12	947.2	534.13	517.52	823.7	527.73	541.75	759.38	538.49	735.95	1416.7	87.339	641.57	1091.9	35.853	800.22	998	-54.812	884.74	926.76	-4.2007	757.61	724.84	455.88	838.62	554.66	431.34	856.78	670.9	414.6	880.2	466.49	412.73	950.52	397.01	337.35	1010.4	215.13	343.08	962.61	301.96	412.36	981.64	308.9	342.44	1152	100.67	307.75	1127.4	82.954	386.78	741.54	626	116.23	798.49	639.46	448.66	827.14	882.08	-41.119	654.7	552.06	91.032	677.29	637.44	74.085	669.85	1098.2	-42.157	594.79	945.53	195.98	591.67	944.61	300.76	612.16	342.66	176.02	607.87	439.81	111.32	585.31	1118.4	243.58	587.86	801.13	500.41	566.36	262.13	187.2	524.28	180.2	197.49	721.31	1562.5	197.28	702.25	731.34	63.838	570.21	35.5	254.1	607.3	1340.2	342.79	359.57	55.911	223.32	821.92	1341.1	252.06	542.04	266.91	119.54	417.64	87.258	175.94	619.82	23.592	242.3	991.39	94.835	380.25	541.21	29.434	163.17	1016.6	120.69	297.1	554.65	1074.1	409.97	1188.7	126.55	336.69	700.24	1227	-16.74	910.88	878.57	-49.752	967.65	31.892	335.45
413	2.065	742.72	1563.9	337.06	695.56	1425.7	258.12	780.98	924.49	398.27	746.68	1378.2	411.93	653.61	1202.5	487.46	576.2	1091.9	503.53	571.3	946.16	533.92	522.26	822.82	527.41	546.18	758.34	538.02	742.98	1415.7	87.738	649.02	1090.8	35.809	808.22	997.39	-54.504	892.88	926.52	-3.6987	765.42	723.86	456.08	846.61	553.85	430.91	864.55	670.13	414.37	888.28	465.61	412.23	958.64	396.34	336.7	1018.9	214.59	341.95	971.01	301.15	411.47	989.94	308.29	341.56	1160.7	100.83	306.1	1136.3	82.609	385.06	747.28	624.79	116.23	806.43	638.57	448.61	835.52	881.62	-40.775	659.91	551.43	91.214	682.98	636.7	74.332	677.5	1097.2	-42.178	602.03	944.21	196.49	599.04	943.35	301.26	615.71	341.95	176.13	612.38	439.4	111.49	592.42	1117	243.7	592.57	799.97	500.15	569.01	261.94	187.2	525.99	180.48	197.37	727.83	1561.5	198.08	708.52	730.45	64.072	570.2	35.474	254.03	613.79	1338.7	342.76	359.88	57.957	222.96	828.71	1340	252.6	544.76	267.07	119.55	418.33	88.702	175.62	619.76	23.593	242.38	1000.2	94.173	378.86	541.26	29.363	163.14	1025.3	120.28	295.78	560.52	1073.1	409.7	1197.4	126.63	334.98	707.73	1226	-16.549	919.29	878.44	-49.197	976.56	31.307	334.01
414	2.07	749.3	1562.6	337.89	702.14	1424.5	258.44	788.48	923.51	398.51	752.9	1377	412.38	659.57	1201.3	487.55	581.99	1090.8	503.33	576.62	945.09	533.74	527.2	821.88	527.11	550.84	757.26	537.58	750	1414.7	88.154	656.44	1089.8	35.784	816.14	996.73	-54.19	900.94	926.18	-3.2008	773.4	722.97	456.27	854.78	553.13	430.48	872.51	669.45	414.16	896.48	464.77	411.74	966.72	395.58	336.03	1027	213.89	340.75	979.22	300.24	410.53	998.03	307.55	340.63	1168.7	100.58	304.37	1144.5	81.919	383.26	753.14	623.59	116.21	814.54	637.76	448.56	843.78	881.1	-40.442	665.23	550.79	91.394	688.77	635.95	74.586	685.13	1096.2	-42.168	609.34	942.92	196.99	606.46	942.11	301.75	619.39	341.23	176.24	617.03	438.97	111.66	599.58	1115.6	243.82	597.5	798.8	499.91	571.76	261.76	187.18	527.77	180.81	197.23	734.34	1560.4	198.88	714.86	729.56	64.319	570.17	35.441	253.96	620.3	1337.3	342.76	360.25	60.146	222.57	835.52	1338.9	253.16	547.59	267.26	119.54	419.08	90.242	175.28	619.68	23.592	242.46	1008.4	93.393	377.43	541.3	29.287	163.11	1033.3	119.71	294.39	566.48	1072.1	409.46	1205.5	126.26	333.16	715.22	1225.1	-16.338	927.58	878.21	-48.649	984.7	30.686	332.54
415	2.075	755.87	1561.3	338.72	708.73	1423.2	258.78	796.03	922.55	398.74	759.13	1375.8	412.84	665.59	1200.1	487.67	587.87	1089.6	503.17	582.08	943.99	533.59	532.34	820.91	526.83	555.72	756.15	537.16	757.02	1413.7	88.586	663.85	1088.7	35.778	824	996.02	-53.868	908.89	925.75	-2.7078	781.53	722.15	456.46	863.1	552.5	430.05	880.63	668.87	413.97	904.8	463.97	411.28	974.75	394.73	335.34	1034.7	213.01	339.5	987.27	299.23	409.56	1005.9	306.67	339.65	1176	99.905	302.57	1152	80.884	381.4	759.1	622.4	116.19	822.81	637.04	448.5	851.91	880.52	-40.121	670.69	550.14	91.573	694.65	635.21	74.846	692.74	1095.2	-42.125	616.69	941.65	197.48	613.93	940.91	302.23	623.2	340.49	176.34	621.86	438.52	111.82	606.79	1114.2	243.94	602.62	797.62	499.68	574.62	261.6	187.14	529.65	181.18	197.07	740.86	1559.4	199.7	721.26	728.68	64.579	570.12	35.397	253.89	626.83	1335.8	342.78	360.69	62.488	222.16	842.36	1337.8	253.74	550.54	267.48	119.52	419.9	91.883	174.91	619.56	23.587	242.54	1016	92.5	375.98	541.34	29.208	163.08	1040.7	118.95	292.97	572.52	1071	409.27	1213	125.41	331.26	722.7	1224.1	-16.104	935.74	877.87	-48.109	992.07	30.039	331.08
416	2.08	762.45	1560.1	339.57	715.34	1422	259.14	803.63	921.62	398.97	765.38	1374.7	413.34	671.67	1198.9	487.81	593.84	1088.5	503.04	587.71	942.86	533.46	537.67	819.88	526.58	560.82	755.01	536.77	764.03	1412.7	89.036	671.23	1087.7	35.793	831.79	995.28	-53.54	916.74	925.23	-2.2201	789.8	721.42	456.63	871.56	551.94	429.62	888.92	668.37	413.82	913.23	463.21	410.84	982.73	393.81	334.61	1042	211.98	338.2	995.16	298.15	408.55	1013.6	305.68	338.64	1182.7	98.812	300.72	1158.9	79.511	379.49	765.19	621.23	116.15	831.22	636.4	448.43	859.91	879.89	-39.814	676.29	549.47	91.753	700.65	634.45	75.113	700.34	1094.3	-42.049	624.09	940.42	197.96	621.45	939.75	302.71	627.16	339.74	176.42	626.86	438.06	111.96	614.05	1112.8	244.07	607.95	796.42	499.48	577.61	261.46	187.09	531.62	181.6	196.89	747.37	1558.4	200.53	727.74	727.81	64.853	570.05	35.343	253.82	633.38	1334.3	342.82	361.21	64.994	221.73	849.21	1336.9	254.34	553.62	267.73	119.48	420.81	93.63	174.52	619.41	23.576	242.62	1023	91.506	374.53	541.37	29.124	163.06	1047.6	118.03	291.53	578.66	1069.9	409.11	1219.8	124.08	329.28	730.17	1223.2	-15.847	943.78	877.43	-47.577	998.72	29.376	329.64
417	2.085	769.02	1558.9	340.42	721.96	1420.8	259.53	811.28	920.72	399.2	771.65	1373.5	413.85	677.81	1197.7	487.98	599.92	1087.3	502.94	593.48	941.7	533.35	543.2	818.82	526.34	566.16	753.85	536.41	771.04	1411.7	89.504	678.59	1086.7	35.83	839.51	994.49	-53.204	924.49	924.63	-1.7384	798.19	720.76	456.78	880.13	551.47	429.18	897.34	667.95	413.69	921.74	462.5	410.41	990.65	392.82	333.86	1049	210.8	336.87	1002.9	297	407.52	1021	304.58	337.6	1188.8	97.307	298.82	1165.1	77.814	377.57	771.4	620.07	116.11	839.74	635.84	448.35	867.77	879.2	-39.521	682.06	548.78	91.933	706.77	633.7	75.388	707.92	1093.3	-41.94	631.55	939.23	198.42	629.02	938.63	303.17	631.28	338.96	176.49	632.07	437.57	112.1	621.35	1111.5	244.21	613.49	795.22	499.3	580.73	261.34	187.02	533.71	182.06	196.69	753.89	1557.5	201.37	734.3	726.94	65.142	569.96	35.279	253.75	639.95	1332.9	342.89	361.84	67.676	221.28	856.09	1335.9	254.96	556.85	268	119.43	421.81	95.49	174.11	619.22	23.557	242.69	1029.5	90.426	373.12	541.39	29.04	163.05	1053.9	116.95	290.08	584.89	1068.8	409	1226.1	122.29	327.22	737.62	1222.3	-15.566	951.68	876.89	-47.055	1004.7	28.713	328.26
